PathFileType	4	(X/Y/Z)	Run_200 02
DataRate	CameraRate	NumFrames	NumMarkers	Units	OrigDataRate	OrigDataStartFrame	OrigNumFrames
100	100	4	42	mm	100	190	128
Frame#	Time	RASI			LPSI			RPSI			RTH1			RTH2			RTH3			LTH1			LTH2			LTH3			RTB1			RTB2			RTB3			LTB1			LTB2			LTB3			RCAL			RTOE			RMT5			LCAL			LTOE			LMT5			LACR			RACR			C7			RUA1			RUA2			RUA3			RLEL			RMEL			LUA2			LUA3			LLEL			LMEL			RFAsuperior			RFAradius			RFAulna			LFAsuperior			LFAradius			LFAulna			LUA1			CLAV			LASI			
		X1	Y1	Z1	X2	Y2	Z2	X3	Y3	Z3	X4	Y4	Z4	X5	Y5	Z5	X6	Y6	Z6	X7	Y7	Z7	X8	Y8	Z8	X9	Y9	Z9	X10	Y10	Z10	X11	Y11	Z11	X12	Y12	Z12	X13	Y13	Z13	X14	Y14	Z14	X15	Y15	Z15	X16	Y16	Z16	X17	Y17	Z17	X18	Y18	Z18	X19	Y19	Z19	X20	Y20	Z20	X21	Y21	Z21	X22	Y22	Z22	X23	Y23	Z23	X24	Y24	Z24	X25	Y25	Z25	X26	Y26	Z26	X27	Y27	Z27	X28	Y28	Z28	X29	Y29	Z29	X30	Y30	Z30	X31	Y31	Z31	X32	Y32	Z32	X33	Y33	Z33	X34	Y34	Z34	X35	Y35	Z35	X36	Y36	Z36	X37	Y37	Z37	X38	Y38	Z38	X39	Y39	Z39	X40	Y40	Z40	X41	Y41	Z41	X42	Y42	Z42	

178	2.6	1195.4255	992.006816	-175.853868	1017.637128	1033.449249	-350.353346	1017.967292	1035.626023	-258.610415	1164.242982	823.301496	-118.754258	1208.796629	725.258473	-130.459276	1157.803101	585.713699	-153.615072	1132.093929	829.0687339999999	-487.256509	1234.858282	722.167584	-476.559006	1195.20017	594.236798	-473.420323	1155.511228	324.099125	-235.562769	1072.471612	246.978982	-190.09111	1056.417621	180.048276	-259.57768	1128.206223	356.693987	-401.087669	1058.039135	349.631289	-441.434382	1007.864272	289.192814	-386.051809	898.7859979999999	119.175591	-256.141729	1129.997317	70.78822700000001	-275.038272	1111.474534	53.537904	-197.244179	828.266476	304.283996	-366.327572	972.02081	110.335524	-351.115997	937.66419	116.171966	-435.96198	1158.810995	1517.48633	-446.002551	1222.528368	1472.146423	-103.592967	1130.375877	1529.829278	-265.332442	1168.091533	1330.851559	-36.005327	1098.312434	1325.352211	-23.567569	1109.148542	1252.943936	-21.85888	1074.90033	1180.893991	-7.119401	1027.197517	1189.908681	-87.506415	983.98464	1392.301842	-477.531948	990.870367	1320.129461	-529.858224	953.883957	1261.316185	-546.193957	930.668688	1250.355436	-457.810446	1159.308352	1174.149363	-37.495743	1293.967622	1171.147518	-140.899734	1281.516996	1103.367912	-118.288947	1024.396979	1205.520034	-545.375853	1176.622976	1135.517387	-481.111579	1137.265827	1078.283053	-503.667193	1065.535571	1424.303384	-513.0228499999999	1247.753413	1436.466606	-259.484045	1188.619567	986.055021	-434.747401	
179	2.61	1194.245567	995.049831	-175.91532	1016.634435	1038.482258	-350.599709	1017.199043	1040.105548	-259.017176	1159.715211	825.418765	-119.388098	1201.504028	726.08511	-131.749401	1145.723023	587.795903	-154.076562	1131.958024	834.239742	-488.086678	1236.714746	729.608419	-477.374611	1199.675862	600.973566	-473.286704	1137.794013	325.381751	-235.287173	1054.226217	249.038231	-190.075492	1037.707294	181.660389	-258.502953	1140.999695	359.228071	-400.508283	1070.770976	349.619387	-440.456887	1024.573319	286.367637	-385.183122	880.110094	122.67665	-255.691165	1110.253492	70.471002	-275.05149	1091.429919	53.479506	-197.278492	843.5150599999999	291.795734	-363.386796	998.9864260000001	106.668255	-352.252617	963.346174	111.677957	-436.881087	1154.891816	1523.475797	-445.584601	1224.35664	1478.0268	-105.088731	1129.278447	1534.479315	-264.796261	1171.466742	1337.088214	-36.134631	1102.108144	1331.148562	-22.720923	1114.08868	1258.708927	-20.847905	1080.482812	1186.49664	-5.670913	1028.855291	1195.518312	-83.879176	977.687784	1402.968244	-473.419447	980.825024	1332.864253	-529.065546	942.564375	1274.902439	-544.972607	920.032467	1262.928429	-456.727671	1164.079054	1183.10738	-38.33543	1295.547266	1185.786599	-145.308051	1285.964658	1117.535068	-123.259038	1012.557241	1219.258617	-545.528651	1165.477364	1148.803404	-484.87337	1125.399697	1091.14104	-504.006381	1057.95863	1433.934802	-511.424017	1246.841001	1441.815264	-261.75165	1187.878392	989.671163	-433.784941	
180	2.62	1193.21726	998.948928	-175.999702	1016.120429	1044.221773	-350.978106	1016.889764	1045.191441	-259.474092	1155.303763	828.139953	-120.322299	1193.991635	727.6412340000001	-133.238917	1133.153191	590.833419	-154.547281	1131.83351	840.219454	-488.951474	1238.054447	737.453077	-478.05254	1203.491641	608.2258859999999	-473.009684	1119.937492	327.641983	-234.590228	1036.07789	251.90884	-189.996217	1019.121227	183.915283	-257.088384	1153.485848	361.956028	-399.80474	1083.266507	349.55146	-439.314223	1041.072193	283.441745	-384.193466	861.903999	127.144122	-254.861979	1090.678426	70.184674	-274.965351	1071.456317	53.419228	-197.25357	859.802502	278.369755	-360.349806	1026.716345	103.068108	-353.135004	989.823092	107.055405	-437.566706	1151.262567	1530.143686	-445.082949	1225.839439	1484.843813	-106.78729	1128.074845	1539.744356	-264.448739	1174.878528	1344.296692	-36.249441	1106.095501	1337.863528	-21.554884	1119.046703	1265.390745	-19.639938	1085.986245	1193.039261	-3.832856	1031.119924	1202.049404	-80.18997299999999	972.175894	1414.472616	-469.66906	971.882734	1346.375066	-528.18114	932.022345	1289.309026	-543.431023	910.543894	1276.693737	-455.12906	1168.4959	1192.683523	-38.53021	1296.345173	1200.989273	-149.356847	1289.599373	1132.324647	-127.972843	1001.326957	1233.445075	-545.307225	1155.096762	1162.882001	-487.873539	1114.468068	1104.938515	-503.951921	1051.19381	1444.303843	-509.764495	1245.758393	1448.133325	-263.898839	1187.29141	994.009563	-432.791131	
181	2.63	1192.408035	1003.513249	-176.198359	1015.995578	1050.540216	-351.384948	1016.82658	1050.88793	-259.788944	1151.068602	831.441705	-121.500096	1186.548185	729.90808	-134.927618	1120.373337	594.796384	-155.034535	1131.769277	846.878688	-489.816731	1238.975157	745.530163	-478.567409	1206.641194	615.830466	-472.606513	1102.197819	330.901893	-233.49867	1018.104109	255.679501	-189.805075	1000.999588	186.890016	-255.869403	1165.625503	365.002953	-399.125931	1095.608992	349.340942	-438.100053	1057.404345	280.391609	-383.13533	844.266742	132.623341	-253.832311	1071.305591	69.88433000000001	-274.93399	1051.581011	53.470052	-197.261736	877.214826	264.27018	-357.340269	1055.030477	99.69473499999999	-353.735848	1016.910955	102.307313	-437.932875	1147.943786	1537.282645	-444.553233	1227.036088	1492.450172	-108.637386	1126.807788	1545.526276	-264.306069	1178.425023	1352.288066	-36.440666	1110.268709	1345.494251	-20.232614	1123.80764	1273.068414	-18.158021	1091.362507	1200.492209	-1.701687	1034.429737	1209.373646	-76.74896699999999	967.372721	1426.823737	-466.311502	963.960557	1360.345153	-526.994155	922.2135	1304.166244	-541.549385	902.153318	1291.430155	-452.908898	1172.668408	1202.855198	-38.395828	1296.465541	1216.306441	-153.302247	1292.547651	1147.333082	-132.431424	990.716192	1247.741289	-544.656889	1145.649345	1177.42823	-490.179813	1104.57684	1119.338155	-503.514993	1045.337662	1455.224008	-508.223506	1244.571709	1455.134159	-265.81515	1186.907684	999.0465850000001	-432.364865	
